# xmcd
#
# Track frame offsets:
#	150
#	10025
#	22375
#	37647
#	48770
#	59210
#	71862
#	85060
#	98247
#	112420
#	125432
#	139572
#	154982
#	167760
#	180487
#	191345
#	204752
#	216750
#	228212
#	241035
#	255452
#	269252
#	284630
#	295422
#	305665
#
# Disc length: 4239 seconds
#
# Revision: 0
# Processed by: cddbd v1.4PL0 Copyright (c) Steve Scherf et al.
# Submitted via: dBpowerAMP V4.0
#
DISCID=69108d19
DTITLE=Clooney, Rosemary - Memories Of You
DYEAR=1900
DGENRE=
TTITLE0=Doncha Go 'Way Mad (featuring the Hi Lo's)
TTITLE1=Together (featuring the Hi Lo's)
TTITLE2=What Is There To Say (featuring the Hi Lo's)
TTITLE3=How About You (featuring the Hi Lo's)
TTITLE4=Sing, Little Birdie, Sing
TTITLE5=Who Dot Mon, Mom?
TTITLE6=(You Can't Lose The blues With) Colors (US Version)
TTITLE7=(You Can't Lose The Blues With) Colours (British Version)
TTITLE8=Love And Learn
TTITLE9=A Foggy Day
TTITLE10=I'm Glad It's You (with Cy Coleman)
TTITLE11=I Can't Stop Crying
TTITLE12=Tonight (1957)
TTITLE13=Tonight (1998)
TTITLE14=Love And Affection
TTITLE15=You Don't Know Him
TTITLE16=Surprise
TTITLE17=You Ol' Son Of A Gun
TTITLE18=I Wonder
TTITLE19=The Chowder Social (with Tony Pastor and the Clooney Sisters)
TTITLE20=The Click Song (with Tony Pastor and the Clooney Sisters)
TTITLE21=Bargain Day
TTITLE22=Poor Whip, Poor Will (Move Over, Move Over)
TTITLE23=On The First Warm Day (double vocal)
TTITLE24=Too Old To Cut The Mustard (with Marlene Dietrich)
EXTD=
EXTT0=
EXTT1=
EXTT2=
EXTT3=
EXTT4=
EXTT5=
EXTT6=
EXTT7=
EXTT8=
EXTT9=
EXTT10=
EXTT11=
EXTT12=
EXTT13=
EXTT14=
EXTT15=
EXTT16=
EXTT17=
EXTT18=
EXTT19=
EXTT20=
EXTT21=
EXTT22=
EXTT23=
EXTT24=
PLAYORDER=
